<svg width="152" height="37" viewBox="0 0 152 37" fill="none" xmlns="http://www.w3.org/2000/svg">
<g clip-path="url(#clip0_57347_26708)">
<path d="M4.67275 14.0586V27.1413C4.67275 28.2654 5.46347 28.7151 6.43666 28.153L13.0231 24.3657C15.6733 22.8438 15.6733 20.3795 13.0231 18.8576L4.66406 14.0586H4.67275Z" fill="#878787"/>
<path d="M13.6865 36.687L11.6184 35.5024L4.67578 31.5421L7.61273 29.8646L14.5293 25.8871C15.5894 25.2991 15.7545 24.737 15.9283 24.3047V35.4073C15.9283 36.8254 14.929 37.4047 13.6952 36.6957L13.6865 36.687Z" fill="#006E7E"/>
<path d="M12.7557 1.74599L9.82747 3.43213L0 9.03531L4.15343 11.4045L13.9461 17.0337C15.4407 17.8638 15.6753 18.6593 15.9186 19.2819V3.56183C15.9186 1.55575 14.5023 0.734301 12.7557 1.74599Z" fill="#F9C416"/>
<path d="M49.1117 14.5699H44.5499V11.1371C44.5499 9.56337 44.1936 8.39604 43.4724 7.63511C42.6643 6.77907 41.3436 6.35537 39.5102 6.35537C37.9461 6.35537 36.4863 6.49372 35.1395 6.77042V14.5786H33.6536C31.6638 14.5786 30.2562 14.2154 29.4307 13.4804C28.64 12.7973 28.249 11.6646 28.249 10.0908C28.249 8.78515 28.501 7.59188 28.9962 6.51102L25.9203 7.01254C25.5466 8.04152 25.3555 9.1829 25.3555 10.4194C25.3555 12.512 25.9463 14.077 27.1368 15.1147C28.4401 16.2647 30.5168 16.844 33.3669 16.844H37.92V8.73327C38.3979 8.6468 38.8758 8.60356 39.3538 8.60356C40.2574 8.60356 40.8831 8.81109 41.2393 9.23479C41.5956 9.65848 41.7694 10.3935 41.7694 11.4397V16.8181H51.9965V1.53906H49.1204V14.5786L49.1117 14.5699Z" fill="#131437"/>
<path d="M55.323 8.00702C54.4019 8.99277 53.9414 10.2639 53.9414 11.7944C53.9414 15.1493 55.8878 16.8268 59.7805 16.8268H61.4836V17.1554C61.4836 19.075 60.2237 20.0348 57.7038 20.0348C56.5742 20.0348 55.4446 19.9138 54.3064 19.663L54.1239 22.0063C55.2448 22.1966 56.3483 22.2917 57.4431 22.2917C59.7545 22.2917 61.501 21.7642 62.6827 20.7006C63.7428 19.7581 64.2729 18.4784 64.2729 16.8701V7.10775C62.9434 6.60623 61.4315 6.35547 59.7197 6.35547C57.8255 6.35547 56.357 6.90887 55.323 8.00702ZM61.4836 14.57H60.0934C57.9124 14.57 56.8175 13.5583 56.8175 11.5263C56.8175 10.6616 57.0434 9.96986 57.5127 9.42511C57.9819 8.87171 58.6162 8.59501 59.4156 8.59501C60.215 8.59501 60.9362 8.72471 61.4923 8.98412V14.5527L61.4836 14.57Z" fill="#131437"/>
<path d="M74.9811 14.57H68.2383V16.8269H77.8485V1.90234H74.9811V14.57Z" fill="#131437"/>
<path d="M73.3811 12.9431L71.0958 5.03125H68.1328L70.4615 12.9431H73.3811Z" fill="#131437"/>
<path d="M72.0211 2.81888H70.6916C69.7619 2.81888 69.3014 2.58542 69.3014 2.11849C69.3014 1.70344 69.6315 1.49591 70.2832 1.49591C70.7611 1.49591 71.1261 1.5305 71.3781 1.59967L71.6387 0.129703C71.3346 0.0432344 70.9002 0 70.3527 0C69.3709 0 68.6149 0.216172 68.0675 0.631222C67.5809 1.02033 67.3289 1.5132 67.3289 2.10984C67.3289 2.47301 67.4332 2.73241 67.6504 2.8967C67.381 2.83618 67.0074 2.81024 66.5469 2.81024V4.30615H72.0384V2.81024L72.0211 2.81888Z" fill="#131437"/>
<path d="M84.7511 1.53906H81.875V16.8354H84.7511V1.53906Z" fill="#131437"/>
<path d="M110.217 14.5699H104.048V1.53906H101.172V15.4C101.172 18.193 100.259 19.5851 98.4433 19.5851C96.4535 19.5851 95.4542 18.193 95.4542 15.4C95.4542 14.0684 95.6628 12.6762 96.0712 11.2409L93.0995 11.777C92.7519 13.0308 92.5781 14.3278 92.5781 15.6508C92.5781 19.758 94.455 21.816 98.2 21.816C101.554 21.816 103.466 20.1558 103.935 16.8267H113.085V6.63208H110.208V14.5786L110.217 14.5699Z" fill="#131437"/>
<path d="M107.974 18.6094C107.574 18.6094 107.235 18.7564 106.948 19.0417C106.67 19.3357 106.531 19.6816 106.531 20.0793C106.531 20.4771 106.67 20.8489 106.948 21.1256C107.226 21.411 107.565 21.5493 107.974 21.5493C108.382 21.5493 108.73 21.4023 109.016 21.117C109.294 20.8316 109.433 20.4857 109.433 20.0793C109.433 19.6729 109.294 19.3184 109.016 19.0331C108.73 18.7477 108.382 18.6094 107.974 18.6094Z" fill="#131437"/>
<path d="M111.591 18.6094C111.191 18.6094 110.852 18.7564 110.566 19.0417C110.287 19.3357 110.148 19.6816 110.148 20.0793C110.148 20.4771 110.287 20.8489 110.566 21.1256C110.844 21.411 111.182 21.5493 111.591 21.5493C111.999 21.5493 112.329 21.4023 112.616 21.117C112.894 20.823 113.033 20.4857 113.033 20.0793C113.033 19.6729 112.894 19.3184 112.616 19.0331C112.338 18.7477 111.999 18.6094 111.591 18.6094Z" fill="#131437"/>
<path d="M150.167 2.46359C149.889 2.1696 149.55 2.03125 149.142 2.03125C148.733 2.03125 148.403 2.17825 148.116 2.46359C147.838 2.74894 147.699 3.10346 147.699 3.50987C147.699 3.91627 147.838 4.26215 148.116 4.54749C148.394 4.84149 148.733 4.97984 149.142 4.97984C149.55 4.97984 149.88 4.83284 150.167 4.54749C150.445 4.26215 150.584 3.91627 150.584 3.50987C150.584 3.10346 150.445 2.74029 150.167 2.46359Z" fill="#131437"/>
<path d="M145.528 4.98765C145.937 4.98765 146.284 4.84065 146.571 4.5553C146.849 4.26996 146.988 3.92408 146.988 3.51768C146.988 3.11128 146.849 2.74811 146.571 2.47141C146.284 2.17741 145.937 2.03906 145.528 2.03906C145.12 2.03906 144.79 2.18606 144.503 2.47141C144.225 2.75675 144.086 3.11128 144.086 3.51768C144.086 3.92408 144.225 4.26996 144.503 4.5553C144.781 4.8493 145.12 4.98765 145.528 4.98765Z" fill="#131437"/>
<path d="M146.318 14.5708H141.426V11.3369C141.426 8.00786 139.784 6.34766 136.499 6.34766C134.701 6.34766 133.276 6.88376 132.242 7.94733C131.303 8.92443 130.834 10.1436 130.834 11.6136C130.834 12.7118 130.608 13.4813 130.165 13.9396C129.757 14.3547 129.131 14.5622 128.279 14.5622H126.55V7.10858C125.221 6.60706 123.7 6.3563 121.997 6.3563C120.103 6.3563 118.634 6.9097 117.6 8.00786C116.679 8.9936 116.219 10.2647 116.219 11.7952C116.219 15.1502 118.165 16.8277 122.058 16.8277H123.761V17.1563C123.761 19.0759 122.501 20.0357 119.981 20.0357C118.852 20.0357 117.722 19.9146 116.584 19.6639L116.401 22.0072C117.522 22.1974 118.626 22.2925 119.72 22.2925C122.032 22.2925 123.778 21.765 124.96 20.7015C126.02 19.759 126.55 18.4792 126.55 16.8709V16.8277H128.679C130.504 16.8104 131.633 16.2483 132.068 15.1329C132.98 16.2656 134.605 16.8277 136.951 16.8277H149.186V6.633H146.309V14.5795L146.318 14.5708ZM123.761 14.5708H122.371C120.181 14.5708 119.095 13.5592 119.095 11.5271C119.095 10.6624 119.321 9.9707 119.79 9.42595C120.259 8.87254 120.894 8.59584 121.693 8.59584C122.492 8.59584 123.214 8.72555 123.77 8.98495V14.5535L123.761 14.5708ZM138.619 14.5708H136.96C134.779 14.5708 133.693 13.5592 133.693 11.5271C133.693 10.6624 133.919 9.9707 134.37 9.42595C134.848 8.87254 135.483 8.59584 136.282 8.59584C137.837 8.59584 138.611 9.62482 138.611 11.6741V14.5535L138.619 14.5708Z" fill="#131437"/>
<path d="M25.7266 26.2266H33.3644V27.8522H30.4796V35.1328H28.6027V27.8522H25.7353V26.2266H25.7266Z" fill="#878787"/>
<path d="M39.1776 26.2266L42.6011 35.1328H40.7069L39.9075 32.9884H36.5534L35.7627 35.1328H33.8945L37.3181 26.2266H39.1689H39.1776ZM37.1356 31.4233H39.3253L38.2304 28.4661L37.1356 31.4233Z" fill="#878787"/>
<path d="M48.517 35.1328L46.3012 29.3135V35.1328H44.5547V26.2266H46.7704L49.16 32.5042L51.5321 26.2266H53.7218V35.1328H51.9579V29.3135L49.7856 35.1328H48.517Z" fill="#878787"/>
<path d="M62.0011 26.2266L63.5478 32.2188L65.0163 26.2266H66.8497L64.521 35.1328H62.8179L61.2452 29.2616L59.6724 35.1328H57.9693L55.6406 26.2266H57.5175L58.9773 32.2188L60.55 26.2266H62.0098H62.0011Z" fill="#878787"/>
<path d="M74.8472 26.2266V27.8522H70.6069V29.7977H74.4562V31.3801H70.6069V33.4986H74.8472V35.1415H68.7734V26.2352H74.8472V26.2266Z" fill="#878787"/>
<path d="M83.2417 26.2266V27.8522H79.0014V29.7977H82.8507V31.3801H79.0014V33.4986H83.2417V35.1415H77.168V26.2352H83.2417V26.2266Z" fill="#878787"/>
<path d="M85.5586 26.2266H87.4268V33.4899H91.5976V35.1328H85.5673V26.2266H85.5586Z" fill="#878787"/>
<path d="M102.428 26.2266L105.851 35.1328H103.957L103.157 32.9884H99.8034L99.0127 35.1328H97.1445L100.568 26.2266H102.419H102.428ZM100.386 31.4233H102.575L101.48 28.4661L100.386 31.4233Z" fill="#878787"/>
<path d="M107.805 26.2266H109.673V33.4899H113.844V35.1328H107.813V26.2266H107.805Z" fill="#878787"/>
<path d="M119.481 35.2784C116.987 35.2784 115.258 33.3329 115.258 30.6783C115.258 28.0237 116.996 26.0781 119.481 26.0781C121.966 26.0781 123.721 28.0064 123.721 30.6783C123.721 33.3502 121.975 35.2784 119.481 35.2784ZM119.481 27.7383C118.064 27.7383 117.152 28.9402 117.152 30.6869C117.152 32.4336 118.073 33.6355 119.481 33.6355C120.888 33.6355 121.844 32.4336 121.844 30.6869C121.844 28.9402 120.914 27.7383 119.481 27.7383Z" fill="#878787"/>
<path d="M125.766 31.553V26.2266H127.634V31.3628C127.634 32.8847 128.303 33.611 129.485 33.611C130.666 33.611 131.335 32.8847 131.335 31.3628V26.2266H133.204V31.553C133.204 34.0001 131.735 35.2798 129.485 35.2798C127.234 35.2798 125.766 34.0001 125.766 31.553Z" fill="#878787"/>
<path d="M135.66 26.2266H137.528V33.4899H141.699V35.1328H135.669V26.2266H135.66Z" fill="#878787"/>
<path d="M148.576 26.2266L152 35.1328H150.105L149.306 32.9884H145.952L145.161 35.1328H143.293L146.717 26.2266H148.567H148.576ZM146.534 31.4233H148.724L147.629 28.4661L146.534 31.4233Z" fill="#878787"/>
</g>
<defs>
<clipPath id="clip0_57347_26708">
<rect width="152" height="37" fill="white"/>
</clipPath>
</defs>
</svg>
